HIERARCHY
ROOT pelvis
{
  OFFSET 0 100 0
  CHANNELS 6 Xposition Yposition Zposition Zrotation Xrotation Yrotation
  JOINT pelvis_right_femur
  {
    OFFSET -10.78128 -3.44521 -0.5502486
    CHANNELS 3 Zrotation Xrotation Yrotation
    JOINT right_femur_tibia
    {
      OFFSET -0.8047443 -44.0398 -0.1307829
      CHANNELS 3 Zrotation Xrotation Yrotation
      JOINT right_tibia_foot
      {
        OFFSET 3.006224 -47.83518 -5
        CHANNELS 3 Zrotation Xrotation Yrotation
        End Site
        {
          OFFSET 0 -5 15
        }
      }
    }
  }
  JOINT pelvis_left_femur
  {
    OFFSET 10.78128 -3.44521 -0.5502486
    CHANNELS 3 Zrotation Xrotation Yrotation
    JOINT left_femur_tibia
    {
      OFFSET 0.8047443 -44.0398 -0.1307829
      CHANNELS 3 Zrotation Xrotation Yrotation
      JOINT left_tibia_foot
      {
        OFFSET -4.370144 -48.10324 -4.275266
        CHANNELS 3 Zrotation Xrotation Yrotation
        End Site
        {
          OFFSET 0 -5 15
        }
      }
    }
  }
  JOINT pelvis_spine1
  {
    OFFSET 0 6.468898 -3.129235
    CHANNELS 3 Zrotation Xrotation Yrotation
    JOINT spine1
    {
      OFFSET 0 23.15396 4.99043
      CHANNELS 3 Zrotation Xrotation Yrotation
      JOINT spine2
      {
        OFFSET 0 20.79997 -5.064912
        CHANNELS 3 Zrotation Xrotation Yrotation
        JOINT neck
        {
          OFFSET 0 14.38658 9.616178
          CHANNELS 3 Zrotation Xrotation Yrotation
          End Site
          {
            OFFSET 0 20 0
          }
        }
      }
      JOINT right_manubrium
      {
        OFFSET -5.722621 16.35077 3.967754
        CHANNELS 3 Zrotation Xrotation Yrotation
        JOINT right_clavicle
        {
          OFFSET -13.16364 1.694482 -4.693211
          CHANNELS 3 Zrotation Xrotation Yrotation
          JOINT right_humerus
          {
            OFFSET -28.5034 -0.3100689 -2.792744
            CHANNELS 3 Zrotation Xrotation Yrotation
            JOINT right_radius
            {
              OFFSET -25.15693 0.02248979 -1.271978
              CHANNELS 3 Zrotation Xrotation Yrotation
              End Site
              {
                OFFSET -15 0 0
              }
            }
          }
        }
      }
      JOINT left_manubrium
      {
        OFFSET 5.722621 16.35077 3.967754
        CHANNELS 3 Zrotation Xrotation Yrotation
        JOINT left_clavicle
        {
          OFFSET 13.16364 1.694482 -4.693211
          CHANNELS 3 Zrotation Xrotation Yrotation
          JOINT left_humerus
          {
            OFFSET 29.39168 -1.063119 -2.237045
            CHANNELS 3 Zrotation Xrotation Yrotation
            JOINT left_radius
            {
              OFFSET 24.59957 -0.9528479 0.9047498
              CHANNELS 3 Zrotation Xrotation Yrotation
              End Site
              {
                OFFSET 15 -0 -0
              }
            }
          }
        }
      }
    }
  }
}
MOTION
Frames: 23
Frame Time: 0.0416666666667
-294.5615 102.6463 -104.8461 6.56647 -4.485607 54.45028 3.867476 12.37654 -1.519446 -0 18.6613 -0 -13.63824 -8.226843 1.64869 2.283836 -17.11477 -3.798735 -0 18.90732 -0 0.7312392 -0.2878277 15.19765 0.2242954 -2.638111 7.921499 -0.4363671 14.72416 -4.896961 -0.5478597 19.77684 5.666178 6.368707 -14.9697 1.849407 3.916376 -26.5175 12.93003 82.04007 25.29809 -8.698377 -0 0 27.8679 -22.50397 13.27874 10.72981 4.953457 -24.05606 -8.667474 -95.93568 6.189785 34.50639 0 0 -1.208337 12.04634 12.68183 -2.517905
-289.085 102.648 -102.4824 6.512853 -4.563283 53.77059 3.867476 12.37654 -1.519446 -0 18.6613 -0 -13.63824 -8.226843 1.64869 2.283836 -17.11477 -3.798735 -0 18.90732 -0 0.7312392 -0.2878277 15.19765 0.2242954 -2.638111 7.921499 -0.4363671 14.72416 -4.896961 -0.5478597 19.77684 5.666178 6.368707 -14.9697 1.849407 3.916376 -26.5175 12.93003 82.04007 25.29809 -8.698377 -0 0 27.8679 -22.50397 13.27874 10.72981 4.953457 -24.05606 -8.667474 -95.93568 6.189785 34.50639 0 0 -1.208337 12.04634 12.68183 -2.517905
-283.637 102.6497 -100.0536 6.458309 -4.640319 53.09075 3.867476 12.37654 -1.519446 -0 18.6613 -0 -13.63824 -8.226843 1.64869 2.283836 -17.11477 -3.798735 -0 18.90732 -0 0.7312392 -0.2878277 15.19765 0.2242954 -2.638111 7.921499 -0.4363671 14.72416 -4.896961 -0.5478597 19.77684 5.666178 6.368707 -14.9697 1.849407 3.916376 -26.5175 12.93003 82.04007 25.29809 -8.698377 -0 0 27.8679 -22.50397 13.27874 10.72981 4.953457 -24.05606 -8.667474 -95.93568 6.189785 34.50639 0 0 -1.208337 12.04634 12.68183 -2.517905
-278.2183 102.6515 -97.56016 6.402846 -4.716704 52.41077 3.867476 12.37654 -1.519446 -0 18.6613 -0 -13.63824 -8.226843 1.64869 2.283836 -17.11477 -3.798735 -0 18.90732 -0 0.7312392 -0.2878277 15.19765 0.2242954 -2.638111 7.921499 -0.4363671 14.72416 -4.896961 -0.5478597 19.77684 5.666178 6.368707 -14.9697 1.849407 3.916376 -26.5175 12.93003 82.04007 25.29809 -8.698377 -0 0 27.8679 -22.50397 13.27874 10.72981 4.953457 -24.05606 -8.667474 -95.93568 6.189785 34.50639 0 0 -1.208337 12.04634 12.68183 -2.517905
-272.8296 102.6532 -95.0024 6.34647 -4.792428 51.73064 3.867476 12.37654 -1.519446 -0 18.6613 -0 -13.63824 -8.226843 1.64869 2.283836 -17.11477 -3.798735 -0 18.90732 -0 0.7312392 -0.2878277 15.19765 0.2242954 -2.638111 7.921499 -0.4363671 14.72416 -4.896961 -0.5478597 19.77684 5.666178 6.368707 -14.9697 1.849407 3.916376 -26.5175 12.93003 82.04007 25.29809 -8.698377 -0 0 27.8679 -22.50397 13.27874 10.72981 4.953457 -24.05606 -8.667474 -95.93568 6.189785 34.50639 0 0 -1.208337 12.04634 12.68183 -2.517905
-267.4718 102.6549 -92.38068 6.289191 -4.867479 51.05035 3.867476 12.37654 -1.519446 -0 18.6613 -0 -13.63824 -8.226843 1.64869 2.283836 -17.11477 -3.798735 -0 18.90732 -0 0.7312392 -0.2878277 15.19765 0.2242954 -2.638111 7.921499 -0.4363671 14.72416 -4.896961 -0.5478597 19.77684 5.666178 6.368707 -14.9697 1.849407 3.916376 -26.5175 12.93003 82.04007 25.29809 -8.698377 -0 0 27.8679 -22.50397 13.27874 10.72981 4.953457 -24.05606 -8.667474 -95.93568 6.189785 34.50639 0 0 -1.208337 12.04634 12.68183 -2.517905
-262.1456 102.6567 -89.69538 6.231014 -4.941848 50.36992 3.867476 12.37654 -1.519446 -0 18.6613 -0 -13.63824 -8.226843 1.64869 2.283836 -17.11477 -3.798735 -0 18.90732 -0 0.7312392 -0.2878277 15.19765 0.2242954 -2.638111 7.921499 -0.4363671 14.72416 -4.896961 -0.5478597 19.77684 5.666178 6.368707 -14.9697 1.849407 3.916376 -26.5175 12.93003 82.04007 25.29809 -8.698377 -0 0 27.8679 -22.50397 13.27874 10.72981 4.953457 -24.05606 -8.667474 -95.93568 6.189785 34.50639 0 0 -1.208337 12.04634 12.68183 -2.517905
-256.8517 102.6584 -86.94686 6.171949 -5.015523 49.68934 3.867476 12.37654 -1.519446 -0 18.6613 -0 -13.63824 -8.226843 1.64869 2.283836 -17.11477 -3.798735 -0 18.90732 -0 0.7312392 -0.2878277 15.19765 0.2242954 -2.638111 7.921499 -0.4363671 14.72416 -4.896961 -0.5478597 19.77684 5.666178 6.368707 -14.9697 1.849407 3.916376 -26.5175 12.93003 82.04007 25.29809 -8.698377 -0 0 27.8679 -22.50397 13.27874 10.72981 4.953457 -24.05606 -8.667474 -95.93568 6.189785 34.50639 0 0 -1.208337 12.04634 12.68183 -2.517905
-251.5908 102.6601 -84.13553 6.112003 -5.088494 49.0086 3.867476 12.37654 -1.519446 -0 18.6613 -0 -13.63824 -8.226843 1.64869 2.283836 -17.11477 -3.798735 -0 18.90732 -0 0.7312392 -0.2878277 15.19765 0.2242954 -2.638111 7.921499 -0.4363671 14.72416 -4.896961 -0.5478597 19.77684 5.666178 6.368707 -14.9697 1.849407 3.916376 -26.5175 12.93003 82.04007 25.29809 -8.698377 -0 0 27.8679 -22.50397 13.27874 10.72981 4.953457 -24.05606 -8.667474 -95.93568 6.189785 34.50639 0 0 -1.208337 12.04634 12.68183 -2.517905
-246.3639 102.6619 -81.26178 6.051183 -5.160749 48.32771 3.867476 12.37654 -1.519446 -0 18.6613 -0 -13.63824 -8.226843 1.64869 2.283836 -17.11477 -3.798735 -0 18.90732 -0 0.7312392 -0.2878277 15.19765 0.2242954 -2.638111 7.921499 -0.4363671 14.72416 -4.896961 -0.5478597 19.77684 5.666178 6.368707 -14.9697 1.849407 3.916376 -26.5175 12.93003 82.04007 25.29809 -8.698377 -0 0 27.8679 -22.50397 13.27874 10.72981 4.953457 -24.05606 -8.667474 -95.93568 6.189785 34.50639 0 0 -1.208337 12.04634 12.68183 -2.517905
-241.1715 102.6636 -78.32601 5.989499 -5.23228 47.64666 3.867476 12.37654 -1.519446 -0 18.6613 -0 -13.63824 -8.226843 1.64869 2.283836 -17.11477 -3.798735 -0 18.90732 -0 0.7312392 -0.2878277 15.19765 0.2242954 -2.638111 7.921499 -0.4363671 14.72416 -4.896961 -0.5478597 19.77684 5.666178 6.368707 -14.9697 1.849407 3.916376 -26.5175 12.93003 82.04007 25.29809 -8.698377 -0 0 27.8679 -22.50397 13.27874 10.72981 4.953457 -24.05606 -8.667474 -95.93568 6.189785 34.50639 0 0 -1.208337 12.04634 12.68183 -2.517905
-236.0144 102.6653 -75.32865 5.926957 -5.303076 46.96546 3.867476 12.37654 -1.519446 -0 18.6613 -0 -13.63824 -8.226843 1.64869 2.283836 -17.11477 -3.798735 -0 18.90732 -0 0.7312392 -0.2878277 15.19765 0.2242954 -2.638111 7.921499 -0.4363671 14.72416 -4.896961 -0.5478597 19.77684 5.666178 6.368707 -14.9697 1.849407 3.916376 -26.5175 12.93003 82.04007 25.29809 -8.698377 -0 0 27.8679 -22.50397 13.27874 10.72981 4.953457 -24.05606 -8.667474 -95.93568 6.189785 34.50639 0 0 -1.208337 12.04634 12.68183 -2.517905
-230.8934 102.6671 -72.27011 5.863568 -5.373126 46.2841 3.867476 12.37654 -1.519446 -0 18.6613 -0 -13.63824 -8.226843 1.64869 2.283836 -17.11477 -3.798735 -0 18.90732 -0 0.7312392 -0.2878277 15.19765 0.2242954 -2.638111 7.921499 -0.4363671 14.72416 -4.896961 -0.5478597 19.77684 5.666178 6.368707 -14.9697 1.849407 3.916376 -26.5175 12.93003 82.04007 25.29809 -8.698377 -0 0 27.8679 -22.50397 13.27874 10.72981 4.953457 -24.05606 -8.667474 -95.93568 6.189785 34.50639 0 0 -1.208337 12.04634 12.68183 -2.517905
-225.8091 102.6688 -69.15084 5.799339 -5.442421 45.60259 3.867476 12.37654 -1.519446 -0 18.6613 -0 -13.63824 -8.226843 1.64869 2.283836 -17.11477 -3.798735 -0 18.90732 -0 0.7312392 -0.2878277 15.19765 0.2242954 -2.638111 7.921499 -0.4363671 14.72416 -4.896961 -0.5478597 19.77684 5.666178 6.368707 -14.9697 1.849407 3.916376 -26.5175 12.93003 82.04007 25.29809 -8.698377 -0 0 27.8679 -22.50397 13.27874 10.72981 4.953457 -24.05606 -8.667474 -95.93568 6.189785 34.50639 0 0 -1.208337 12.04634 12.68183 -2.517905
-220.7623 102.6705 -65.97126 5.73428 -5.51095 44.92092 3.867476 12.37654 -1.519446 -0 18.6613 -0 -13.63824 -8.226843 1.64869 2.283836 -17.11477 -3.798735 -0 18.90732 -0 0.7312392 -0.2878277 15.19765 0.2242954 -2.638111 7.921499 -0.4363671 14.72416 -4.896961 -0.5478597 19.77684 5.666178 6.368707 -14.9697 1.849407 3.916376 -26.5175 12.93003 82.04007 25.29809 -8.698377 -0 0 27.8679 -22.50397 13.27874 10.72981 4.953457 -24.05606 -8.667474 -95.93568 6.189785 34.50639 0 0 -1.208337 12.04634 12.68183 -2.517905
-215.7537 102.6723 -62.73184 5.668398 -5.578703 44.2391 3.867476 12.37654 -1.519446 -0 18.6613 -0 -13.63824 -8.226843 1.64869 2.283836 -17.11477 -3.798735 -0 18.90732 -0 0.7312392 -0.2878277 15.19765 0.2242954 -2.638111 7.921499 -0.4363671 14.72416 -4.896961 -0.5478597 19.77684 5.666178 6.368707 -14.9697 1.849407 3.916376 -26.5175 12.93003 82.04007 25.29809 -8.698377 -0 0 27.8679 -22.50397 13.27874 10.72981 4.953457 -24.05606 -8.667474 -95.93568 6.189785 34.50639 0 0 -1.208337 12.04634 12.68183 -2.517905
-210.7841 102.674 -59.43304 5.601703 -5.645672 43.55711 3.867476 12.37654 -1.519446 -0 18.6613 -0 -13.63824 -8.226843 1.64869 2.283836 -17.11477 -3.798735 -0 18.90732 -0 0.7312392 -0.2878277 15.19765 0.2242954 -2.638111 7.921499 -0.4363671 14.72416 -4.896961 -0.5478597 19.77684 5.666178 6.368707 -14.9697 1.849407 3.916376 -26.5175 12.93003 82.04007 25.29809 -8.698377 -0 0 27.8679 -22.50397 13.27874 10.72981 4.953457 -24.05606 -8.667474 -95.93568 6.189785 34.50639 0 0 -1.208337 12.04634 12.68183 -2.517905
-205.854 102.6757 -56.07531 5.534204 -5.711845 42.87498 3.867476 12.37654 -1.519446 -0 18.6613 -0 -13.63824 -8.226843 1.64869 2.283836 -17.11477 -3.798735 -0 18.90732 -0 0.7312392 -0.2878277 15.19765 0.2242954 -2.638111 7.921499 -0.4363671 14.72416 -4.896961 -0.5478597 19.77684 5.666178 6.368707 -14.9697 1.849407 3.916376 -26.5175 12.93003 82.04007 25.29809 -8.698377 -0 0 27.8679 -22.50397 13.27874 10.72981 4.953457 -24.05606 -8.667474 -95.93568 6.189785 34.50639 0 0 -1.208337 12.04634 12.68183 -2.517905
-200.9643 102.6775 -52.65914 5.46591 -5.777214 42.19268 3.867476 12.37654 -1.519446 -0 18.6613 -0 -13.63824 -8.226843 1.64869 2.283836 -17.11477 -3.798735 -0 18.90732 -0 0.7312392 -0.2878277 15.19765 0.2242954 -2.638111 7.921499 -0.4363671 14.72416 -4.896961 -0.5478597 19.77684 5.666178 6.368707 -14.9697 1.849407 3.916376 -26.5175 12.93003 82.04007 25.29809 -8.698377 -0 0 27.8679 -22.50397 13.27874 10.72981 4.953457 -24.05606 -8.667474 -95.93568 6.189785 34.50639 0 0 -1.208337 12.04634 12.68183 -2.517905
-196.1156 102.6792 -49.18501 5.396831 -5.841769 41.51023 3.867476 12.37654 -1.519446 -0 18.6613 -0 -13.63824 -8.226843 1.64869 2.283836 -17.11477 -3.798735 -0 18.90732 -0 0.7312392 -0.2878277 15.19765 0.2242954 -2.638111 7.921499 -0.4363671 14.72416 -4.896961 -0.5478597 19.77684 5.666178 6.368707 -14.9697 1.849407 3.916376 -26.5175 12.93003 82.04007 25.29809 -8.698377 -0 0 27.8679 -22.50397 13.27874 10.72981 4.953457 -24.05606 -8.667474 -95.93568 6.189785 34.50639 0 0 -1.208337 12.04634 12.68183 -2.517905
-191.3086 102.6809 -45.65341 5.326976 -5.905501 40.82762 3.867476 12.37654 -1.519446 -0 18.6613 -0 -13.63824 -8.226843 1.64869 2.283836 -17.11477 -3.798735 -0 18.90732 -0 0.7312392 -0.2878277 15.19765 0.2242954 -2.638111 7.921499 -0.4363671 14.72416 -4.896961 -0.5478597 19.77684 5.666178 6.368707 -14.9697 1.849407 3.916376 -26.5175 12.93003 82.04007 25.29809 -8.698377 -0 0 27.8679 -22.50397 13.27874 10.72981 4.953457 -24.05606 -8.667474 -95.93568 6.189785 34.50639 0 0 -1.208337 12.04634 12.68183 -2.517905
-186.5439 102.6827 -42.06484 5.256354 -5.968401 40.14486 3.867476 12.37654 -1.519446 -0 18.6613 -0 -13.63824 -8.226843 1.64869 2.283836 -17.11477 -3.798735 -0 18.90732 -0 0.7312392 -0.2878277 15.19765 0.2242954 -2.638111 7.921499 -0.4363671 14.72416 -4.896961 -0.5478597 19.77684 5.666178 6.368707 -14.9697 1.849407 3.916376 -26.5175 12.93003 82.04007 25.29809 -8.698377 -0 0 27.8679 -22.50397 13.27874 10.72981 4.953457 -24.05606 -8.667474 -95.93568 6.189785 34.50639 0 0 -1.208337 12.04634 12.68183 -2.517905
-181.8223 102.6844 -38.41981 5.184975 -6.030459 39.46194 3.867476 12.37654 -1.519446 -0 18.6613 -0 -13.63824 -8.226843 1.64869 2.283836 -17.11477 -3.798735 -0 18.90732 -0 0.7312392 -0.2878277 15.19765 0.2242954 -2.638111 7.921499 -0.4363671 14.72416 -4.896961 -0.5478597 19.77684 5.666178 6.368707 -14.9697 1.849407 3.916376 -26.5175 12.93003 82.04007 25.29809 -8.698377 -0 0 27.8679 -22.50397 13.27874 10.72981 4.953457 -24.05606 -8.667474 -95.93568 6.189785 34.50639 0 0 -1.208337 12.04634 12.68183 -2.517905
